<?xml version="1.0" encoding="UTF-8"?>
<svg xmlns="http://www.w3.org/2000/svg" xmlns:xlink="http://www.w3.org/1999/xlink" width="254.276pt" height="255.41pt" viewBox="0 0 254.276 255.41" version="1.1">
<g id="surface1">
<path style="fill:none;stroke-width:1.99255;stroke-linecap:round;stroke-linejoin:round;stroke:rgb(0%,0%,0%);stroke-opacity:1;stroke-miterlimit:10;" d="M 0.00090625 70.866281 L 0.00090625 -141.735281 " transform="matrix(1,0,0,-1,33.878,105.878)"/>
<path style="fill:none;stroke-width:1.99255;stroke-linecap:round;stroke-linejoin:round;stroke:rgb(0%,0%,0%);stroke-opacity:1;stroke-miterlimit:10;" d="M 0.00090625 -141.735281 L 212.602469 -141.735281 " transform="matrix(1,0,0,-1,33.878,105.878)"/>
<path style="fill:none;stroke-width:1.99255;stroke-linecap:round;stroke-linejoin:round;stroke:rgb(0%,0%,0%);stroke-opacity:1;stroke-miterlimit:10;" d="M 212.602469 -141.735281 L 212.602469 70.866281 " transform="matrix(1,0,0,-1,33.878,105.878)"/>
<path style="fill:none;stroke-width:1.99255;stroke-linecap:round;stroke-linejoin:round;stroke:rgb(0%,0%,0%);stroke-opacity:1;stroke-miterlimit:10;" d="M 212.602469 70.866281 L 0.00090625 70.866281 " transform="matrix(1,0,0,-1,33.878,105.878)"/>
<path style="fill:none;stroke-width:1.99255;stroke-linecap:round;stroke-linejoin:round;stroke:rgb(0%,0%,0%);stroke-opacity:1;stroke-miterlimit:10;" d="M 0.00090625 -0.00090625 L 212.602469 -0.00090625 " transform="matrix(1,0,0,-1,33.878,105.878)"/>
<path style="fill:none;stroke-width:1.99255;stroke-linecap:round;stroke-linejoin:round;stroke:rgb(0%,0%,0%);stroke-opacity:1;stroke-miterlimit:10;" d="M 212.602469 -70.868094 L 0.00090625 -70.868094 " transform="matrix(1,0,0,-1,33.878,105.878)"/>
<path style="fill:none;stroke-width:1.99255;stroke-linecap:round;stroke-linejoin:round;stroke:rgb(0%,0%,0%);stroke-opacity:1;stroke-miterlimit:10;" d="M 72.567312 71.999094 L 70.868094 -141.735281 " transform="matrix(1,0,0,-1,33.878,105.878)"/>
<path style="fill:none;stroke-width:1.99255;stroke-linecap:round;stroke-linejoin:round;stroke:rgb(0%,0%,0%);stroke-opacity:1;stroke-miterlimit:10;" d="M 141.735281 70.866281 L 141.735281 -141.735281 " transform="matrix(1,0,0,-1,33.878,105.878)"/>
<path style="fill:none;stroke-width:1.99255;stroke-linecap:round;stroke-linejoin:round;stroke:rgb(100%,59.999084%,0%);stroke-opacity:1;stroke-miterlimit:10;" d="M 164.606375 -21.258719 C 164.606375 17.987375 132.789969 49.803781 93.543875 49.803781 C 54.297781 49.803781 22.481375 17.987375 22.481375 -21.258719 C 22.481375 -60.508719 54.297781 -92.321219 93.543875 -92.321219 C 132.789969 -92.321219 164.606375 -60.508719 164.606375 -21.258719 Z M 164.606375 -21.258719 " transform="matrix(1,0,0,-1,33.878,105.878)"/>
<path style="fill:none;stroke-width:2.39105;stroke-linecap:round;stroke-linejoin:round;stroke:rgb(0%,0%,0%);stroke-opacity:1;stroke-miterlimit:10;" d="M 93.543875 -21.258719 L 118.098562 45.424875 " transform="matrix(1,0,0,-1,33.878,105.878)"/>
<path style="fill-rule:nonzero;fill:rgb(30.195618%,30.195618%,100%);fill-opacity:1;stroke-width:0.3985;stroke-linecap:round;stroke-linejoin:round;stroke:rgb(0%,0%,0%);stroke-opacity:1;stroke-miterlimit:10;" d="M 96.036062 -21.258719 C 96.036062 -19.883719 94.918875 -18.770438 93.543875 -18.770438 C 92.168875 -18.770438 91.055594 -19.883719 91.055594 -21.258719 C 91.055594 -22.637625 92.168875 -23.750906 93.543875 -23.750906 C 94.918875 -23.750906 96.036062 -22.637625 96.036062 -21.258719 Z M 96.036062 -21.258719 " transform="matrix(1,0,0,-1,33.878,105.878)"/>
<path style="fill-rule:nonzero;fill:rgb(49.01886%,49.01886%,100%);fill-opacity:1;stroke-width:0.3985;stroke-linecap:round;stroke-linejoin:round;stroke:rgb(0%,0%,0%);stroke-opacity:1;stroke-miterlimit:10;" d="M 120.586844 45.424875 C 120.586844 46.799875 119.473562 47.917062 118.098562 47.917062 C 116.723562 47.917062 115.606375 46.799875 115.606375 45.424875 C 115.606375 44.049875 116.723562 42.936594 118.098562 42.936594 C 119.473562 42.936594 120.586844 44.049875 120.586844 45.424875 Z M 120.586844 45.424875 " transform="matrix(1,0,0,-1,33.878,105.878)"/>
</g>
</svg>
