<?xml version="1.0" encoding="UTF-8"?>
<svg xmlns="http://www.w3.org/2000/svg" xmlns:xlink="http://www.w3.org/1999/xlink" width="282.622pt" height="211.756pt" viewBox="0 0 282.622 211.756" version="1.1">
<g id="surface1">
<path style="fill:none;stroke-width:1.99255;stroke-linecap:round;stroke-linejoin:round;stroke:rgb(0%,0%,0%);stroke-opacity:1;stroke-miterlimit:10;" d="M -0.00021875 85.042 L -0.00021875 -85.040031 " transform="matrix(1,0,0,-1,48.051,118.917)"/>
<path style="fill:none;stroke-width:1.99255;stroke-linecap:round;stroke-linejoin:round;stroke:rgb(0%,0%,0%);stroke-opacity:1;stroke-miterlimit:10;" d="M 70.866969 85.042 L 70.866969 -85.040031 " transform="matrix(1,0,0,-1,48.051,118.917)"/>
<path style="fill:none;stroke-width:1.99255;stroke-linecap:round;stroke-linejoin:round;stroke:rgb(0%,0%,0%);stroke-opacity:1;stroke-miterlimit:10;" d="M 141.734156 85.042 L 141.734156 -85.040031 " transform="matrix(1,0,0,-1,48.051,118.917)"/>
<path style="fill:none;stroke-width:1.99255;stroke-linecap:round;stroke-linejoin:round;stroke:rgb(0%,0%,0%);stroke-opacity:1;stroke-miterlimit:10;" d="M 212.601344 85.042 L 212.601344 -85.040031 " transform="matrix(1,0,0,-1,48.051,118.917)"/>
<path style="fill:none;stroke-width:1.99255;stroke-linecap:round;stroke-linejoin:round;stroke:rgb(0%,0%,0%);stroke-opacity:1;stroke-miterlimit:10;" d="M -14.172094 70.866219 L 226.773219 70.866219 " transform="matrix(1,0,0,-1,48.051,118.917)"/>
<path style="fill:none;stroke-width:1.99255;stroke-linecap:round;stroke-linejoin:round;stroke:rgb(0%,0%,0%);stroke-opacity:1;stroke-miterlimit:10;" d="M 226.773219 -0.00096875 L -14.172094 -0.00096875 " transform="matrix(1,0,0,-1,48.051,118.917)"/>
<path style="fill:none;stroke-width:1.99255;stroke-linecap:round;stroke-linejoin:round;stroke:rgb(0%,0%,0%);stroke-opacity:1;stroke-miterlimit:10;" d="M -14.172094 -70.868156 L 226.773219 -70.868156 " transform="matrix(1,0,0,-1,48.051,118.917)"/>
<path style="fill-rule:nonzero;fill:rgb(0%,0%,100%);fill-opacity:1;stroke-width:0.3985;stroke-linecap:round;stroke-linejoin:round;stroke:rgb(0%,0%,0%);stroke-opacity:1;stroke-miterlimit:10;" d="M 144.226344 -0.00096875 C 144.226344 1.374031 143.109156 2.491219 141.734156 2.491219 C 140.359156 2.491219 139.241969 1.374031 139.241969 -0.00096875 C 139.241969 -1.375969 140.359156 -2.48925 141.734156 -2.48925 C 143.109156 -2.48925 144.226344 -1.375969 144.226344 -0.00096875 Z M 144.226344 -0.00096875 " transform="matrix(1,0,0,-1,48.051,118.917)"/>
<path style="fill-rule:nonzero;fill:rgb(0%,0%,100%);fill-opacity:1;stroke-width:0.3985;stroke-linecap:round;stroke-linejoin:round;stroke:rgb(0%,0%,0%);stroke-opacity:1;stroke-miterlimit:10;" d="M 144.226344 -70.868156 C 144.226344 -69.493156 143.109156 -68.375969 141.734156 -68.375969 C 140.359156 -68.375969 139.241969 -69.493156 139.241969 -70.868156 C 139.241969 -72.243156 140.359156 -73.356437 141.734156 -73.356437 C 143.109156 -73.356437 144.226344 -72.243156 144.226344 -70.868156 Z M 144.226344 -70.868156 " transform="matrix(1,0,0,-1,48.051,118.917)"/>
<path style="fill-rule:nonzero;fill:rgb(0%,0%,100%);fill-opacity:1;stroke-width:0.3985;stroke-linecap:round;stroke-linejoin:round;stroke:rgb(0%,0%,0%);stroke-opacity:1;stroke-miterlimit:10;" d="M 215.093531 -70.868156 C 215.093531 -69.493156 213.976344 -68.375969 212.601344 -68.375969 C 211.226344 -68.375969 210.109156 -69.493156 210.109156 -70.868156 C 210.109156 -72.243156 211.226344 -73.356437 212.601344 -73.356437 C 213.976344 -73.356437 215.093531 -72.243156 215.093531 -70.868156 Z M 215.093531 -70.868156 " transform="matrix(1,0,0,-1,48.051,118.917)"/>
<path style="fill-rule:nonzero;fill:rgb(0%,0%,100%);fill-opacity:1;stroke-width:0.3985;stroke-linecap:round;stroke-linejoin:round;stroke:rgb(0%,0%,0%);stroke-opacity:1;stroke-miterlimit:10;" d="M 215.093531 -0.00096875 C 215.093531 1.374031 213.976344 2.491219 212.601344 2.491219 C 211.226344 2.491219 210.109156 1.374031 210.109156 -0.00096875 C 210.109156 -1.375969 211.226344 -2.48925 212.601344 -2.48925 C 213.976344 -2.48925 215.093531 -1.375969 215.093531 -0.00096875 Z M 215.093531 -0.00096875 " transform="matrix(1,0,0,-1,48.051,118.917)"/>
<path style="fill-rule:nonzero;fill:rgb(0%,0%,100%);fill-opacity:1;stroke-width:0.3985;stroke-linecap:round;stroke-linejoin:round;stroke:rgb(0%,0%,0%);stroke-opacity:1;stroke-miterlimit:10;" d="M 36.507594 65.764656 C 36.507594 67.139656 35.390406 68.256844 34.015406 68.256844 C 32.640406 68.256844 31.527125 67.139656 31.527125 65.764656 C 31.527125 64.389656 32.640406 63.272469 34.015406 63.272469 C 35.390406 63.272469 36.507594 64.389656 36.507594 65.764656 Z M 36.507594 65.764656 " transform="matrix(1,0,0,-1,48.051,118.917)"/>
<path style="fill-rule:nonzero;fill:rgb(0%,0%,100%);fill-opacity:1;stroke-width:0.3985;stroke-linecap:round;stroke-linejoin:round;stroke:rgb(0%,0%,0%);stroke-opacity:1;stroke-miterlimit:10;" d="M 6.460719 6.237313 C 6.460719 7.612313 5.343531 8.725594 3.968531 8.725594 C 2.593531 8.725594 1.476344 7.612313 1.476344 6.237313 C 1.476344 4.862313 2.593531 3.745125 3.968531 3.745125 C 5.343531 3.745125 6.460719 4.862313 6.460719 6.237313 Z M 6.460719 6.237313 " transform="matrix(1,0,0,-1,48.051,118.917)"/>
<path style="fill-rule:nonzero;fill:rgb(0%,0%,100%);fill-opacity:1;stroke-width:0.3985;stroke-linecap:round;stroke-linejoin:round;stroke:rgb(0%,0%,0%);stroke-opacity:1;stroke-miterlimit:10;" d="M 63.152125 9.069344 C 63.152125 10.44825 62.038844 11.561531 60.663844 11.561531 C 59.284938 11.561531 58.171656 10.44825 58.171656 9.069344 C 58.171656 7.694344 59.284938 6.581063 60.663844 6.581063 C 62.038844 6.581063 63.152125 7.694344 63.152125 9.069344 Z M 63.152125 9.069344 " transform="matrix(1,0,0,-1,48.051,118.917)"/>
<path style="fill-rule:nonzero;fill:rgb(0%,0%,100%);fill-opacity:1;stroke-width:0.3985;stroke-linecap:round;stroke-linejoin:round;stroke:rgb(0%,0%,0%);stroke-opacity:1;stroke-miterlimit:10;" d="M 110.777125 63.495125 C 110.777125 64.874031 109.659938 65.987313 108.284938 65.987313 C 106.909938 65.987313 105.79275 64.874031 105.79275 63.495125 C 105.79275 62.120125 106.909938 61.006844 108.284938 61.006844 C 109.659938 61.006844 110.777125 62.120125 110.777125 63.495125 Z M 110.777125 63.495125 " transform="matrix(1,0,0,-1,48.051,118.917)"/>
<path style="fill-rule:nonzero;fill:rgb(0%,0%,100%);fill-opacity:1;stroke-width:0.3985;stroke-linecap:round;stroke-linejoin:round;stroke:rgb(0%,0%,0%);stroke-opacity:1;stroke-miterlimit:10;" d="M 192.98025 64.065438 C 192.98025 65.440438 191.866969 66.553719 190.491969 66.553719 C 189.113063 66.553719 187.999781 65.440438 187.999781 64.065438 C 187.999781 62.686531 189.113063 61.57325 190.491969 61.57325 C 191.866969 61.57325 192.98025 62.686531 192.98025 64.065438 Z M 192.98025 64.065438 " transform="matrix(1,0,0,-1,48.051,118.917)"/>
<path style="fill-rule:nonzero;fill:rgb(0%,0%,100%);fill-opacity:1;stroke-width:0.3985;stroke-linecap:round;stroke-linejoin:round;stroke:rgb(0%,0%,0%);stroke-opacity:1;stroke-miterlimit:10;" d="M 82.995875 -31.180656 C 82.995875 -29.805656 81.878688 -28.692375 80.503688 -28.692375 C 79.128688 -28.692375 78.015406 -29.805656 78.015406 -31.180656 C 78.015406 -32.555656 79.128688 -33.672844 80.503688 -33.672844 C 81.878688 -33.672844 82.995875 -32.555656 82.995875 -31.180656 Z M 82.995875 -31.180656 " transform="matrix(1,0,0,-1,48.051,118.917)"/>
<path style="fill-rule:nonzero;fill:rgb(0%,0%,100%);fill-opacity:1;stroke-width:0.3985;stroke-linecap:round;stroke-linejoin:round;stroke:rgb(0%,0%,0%);stroke-opacity:1;stroke-miterlimit:10;" d="M 8.726344 -63.782219 C 8.726344 -62.403312 7.613063 -61.290031 6.238063 -61.290031 C 4.859156 -61.290031 3.745875 -62.403312 3.745875 -63.782219 C 3.745875 -65.157219 4.859156 -66.2705 6.238063 -66.2705 C 7.613063 -66.2705 8.726344 -65.157219 8.726344 -63.782219 Z M 8.726344 -63.782219 " transform="matrix(1,0,0,-1,48.051,118.917)"/>
</g>
</svg>
