<?xml version="1.0" encoding="UTF-8"?>
<svg xmlns="http://www.w3.org/2000/svg" xmlns:xlink="http://www.w3.org/1999/xlink" width="296.796pt" height="296.796pt" viewBox="0 0 296.796 296.796" version="1.1">
<g id="surface1">
<path style=" stroke:none;fill-rule:nonzero;fill:rgb(59.999084%,19.999695%,0%);fill-opacity:0.1;" d="M 33.878906 192.050781 L 168.429688 67.75 L 215.164062 83.40625 L 272.351562 168.429688 L 113.816406 289 L 33.878906 289 Z M 33.878906 192.050781 "/>
<path style="fill:none;stroke-width:1.99255;stroke-linecap:round;stroke-linejoin:round;stroke:rgb(0%,0%,0%);stroke-opacity:1;stroke-miterlimit:10;" d="M 28.346906 141.732094 L 28.346906 -113.389 " transform="matrix(1,0,0,-1,5.532,175.611)"/>
<path style="fill:none;stroke-width:1.99255;stroke-linecap:round;stroke-linejoin:round;stroke:rgb(0%,0%,0%);stroke-opacity:1;stroke-miterlimit:10;" d="M 28.346906 -113.389 L 283.468 -113.389 " transform="matrix(1,0,0,-1,5.532,175.611)"/>
<path style="fill:none;stroke-width:1.99255;stroke-linecap:round;stroke-linejoin:round;stroke:rgb(0%,0%,0%);stroke-opacity:1;stroke-miterlimit:10;" d="M 283.468 -113.389 L 283.468 141.732094 " transform="matrix(1,0,0,-1,5.532,175.611)"/>
<path style="fill:none;stroke-width:1.99255;stroke-linecap:round;stroke-linejoin:round;stroke:rgb(0%,0%,0%);stroke-opacity:1;stroke-miterlimit:10;" d="M 283.468 141.732094 L 28.346906 141.732094 " transform="matrix(1,0,0,-1,5.532,175.611)"/>
<path style="fill:none;stroke-width:1.99255;stroke-linecap:round;stroke-linejoin:round;stroke:rgb(0%,0%,0%);stroke-opacity:1;stroke-miterlimit:10;" d="M 199.56175 141.732094 L 28.346906 -16.439781 " transform="matrix(1,0,0,-1,5.532,175.611)"/>
<path style="fill:none;stroke-width:1.99255;stroke-linecap:round;stroke-linejoin:round;stroke:rgb(0%,0%,0%);stroke-opacity:1;stroke-miterlimit:10;" d="M 61.796125 141.732094 L 283.468 67.466469 " transform="matrix(1,0,0,-1,5.532,175.611)"/>
<path style="fill:none;stroke-width:1.99255;stroke-linecap:round;stroke-linejoin:round;stroke:rgb(0%,0%,0%);stroke-opacity:1;stroke-miterlimit:10;" d="M 176.315656 141.732094 L 283.468 -17.5765 " transform="matrix(1,0,0,-1,5.532,175.611)"/>
<path style="fill:none;stroke-width:1.99255;stroke-linecap:round;stroke-linejoin:round;stroke:rgb(0%,0%,0%);stroke-opacity:1;stroke-miterlimit:10;" d="M 283.468 19.841469 L 108.284406 -113.389 " transform="matrix(1,0,0,-1,5.532,175.611)"/>
<path style="fill:none;stroke-width:1.99255;stroke-linecap:round;stroke-linejoin:round;stroke:rgb(59.999084%,19.999695%,0%);stroke-opacity:1;stroke-miterlimit:10;" d="M 28.346906 -16.439781 L 162.897687 107.861 " transform="matrix(1,0,0,-1,5.532,175.611)"/>
<path style="fill:none;stroke-width:1.99255;stroke-linecap:round;stroke-linejoin:round;stroke:rgb(59.999084%,19.999695%,0%);stroke-opacity:1;stroke-miterlimit:10;" d="M 162.897687 107.861 L 209.632062 92.20475 " transform="matrix(1,0,0,-1,5.532,175.611)"/>
<path style="fill:none;stroke-width:1.99255;stroke-linecap:round;stroke-linejoin:round;stroke:rgb(59.999084%,19.999695%,0%);stroke-opacity:1;stroke-miterlimit:10;" d="M 209.632062 92.20475 L 266.819563 7.181312 " transform="matrix(1,0,0,-1,5.532,175.611)"/>
<path style="fill:none;stroke-width:1.99255;stroke-linecap:round;stroke-linejoin:round;stroke:rgb(59.999084%,19.999695%,0%);stroke-opacity:1;stroke-miterlimit:10;" d="M 266.819563 7.181312 L 108.284406 -113.389 " transform="matrix(1,0,0,-1,5.532,175.611)"/>
<path style="fill:none;stroke-width:1.99255;stroke-linecap:round;stroke-linejoin:round;stroke:rgb(59.999084%,19.999695%,0%);stroke-opacity:1;stroke-miterlimit:10;" d="M 108.284406 -113.389 L 28.346906 -113.389 " transform="matrix(1,0,0,-1,5.532,175.611)"/>
<path style="fill:none;stroke-width:1.99255;stroke-linecap:round;stroke-linejoin:round;stroke:rgb(59.999084%,19.999695%,0%);stroke-opacity:1;stroke-miterlimit:10;" d="M 28.346906 -113.389 L 28.346906 -16.439781 " transform="matrix(1,0,0,-1,5.532,175.611)"/>
<path style="fill-rule:nonzero;fill:rgb(100%,94.898987%,0%);fill-opacity:1;stroke-width:0.3985;stroke-linecap:round;stroke-linejoin:round;stroke:rgb(0%,0%,0%);stroke-opacity:1;stroke-miterlimit:10;" d="M 164.889875 107.861 C 164.889875 108.962562 163.995344 109.853187 162.897687 109.853187 C 161.796125 109.853187 160.9055 108.962562 160.9055 107.861 C 160.9055 106.759437 161.796125 105.868812 162.897687 105.868812 C 163.995344 105.868812 164.889875 106.759437 164.889875 107.861 Z M 164.889875 107.861 " transform="matrix(1,0,0,-1,5.532,175.611)"/>
</g>
</svg>
