<?xml version="1.0" encoding="UTF-8"?>
<svg xmlns="http://www.w3.org/2000/svg" xmlns:xlink="http://www.w3.org/1999/xlink" width="418.685pt" height="302.465pt" viewBox="0 0 418.685 302.465" version="1.1">
<g id="surface1">
<path style="fill:none;stroke-width:1.99255;stroke-linecap:round;stroke-linejoin:round;stroke:rgb(100%,79.998779%,39.99939%);stroke-opacity:1;stroke-miterlimit:10;" d="M 28.34875 113.389031 L 283.469844 -113.388313 " transform="matrix(1,0,0,-1,88.87,168.807)"/>
<path style="fill:none;stroke-width:1.99255;stroke-linecap:round;stroke-linejoin:round;stroke:rgb(0%,0%,0%);stroke-opacity:1;stroke-miterlimit:10;" d="M 247.184687 73.701531 L -23.811406 54.424187 " transform="matrix(1,0,0,-1,88.87,168.807)"/>
<path style="fill:none;stroke-width:1.99255;stroke-linecap:round;stroke-linejoin:round;stroke:rgb(0%,0%,0%);stroke-opacity:1;stroke-miterlimit:10;" d="M -36.850469 -16.443 L 236.41125 93.545281 " transform="matrix(1,0,0,-1,88.87,168.807)"/>
<path style="fill:none;stroke-width:1.99255;stroke-linecap:round;stroke-linejoin:round;stroke:rgb(0%,0%,0%);stroke-opacity:1;stroke-miterlimit:10;" d="M -54.991094 11.904656 L 151.938594 134.932 " transform="matrix(1,0,0,-1,88.87,168.807)"/>
<path style="fill:none;stroke-width:1.99255;stroke-linecap:round;stroke-linejoin:round;stroke:rgb(0%,0%,0%);stroke-opacity:1;stroke-miterlimit:10;" d="M 244.34875 112.252312 L 208.633906 -125.860969 " transform="matrix(1,0,0,-1,88.87,168.807)"/>
<path style="fill:none;stroke-width:1.99255;stroke-linecap:round;stroke-linejoin:round;stroke:rgb(0%,0%,0%);stroke-opacity:1;stroke-miterlimit:10;" d="M 139.465937 -118.489875 L 322.020625 -19.841438 " transform="matrix(1,0,0,-1,88.87,168.807)"/>
<path style="fill:none;stroke-width:1.99255;stroke-linecap:round;stroke-linejoin:round;stroke:rgb(0%,0%,0%);stroke-opacity:1;stroke-miterlimit:10;" d="M 277.231562 36.849969 L 121.325313 -112.821906 " transform="matrix(1,0,0,-1,88.87,168.807)"/>
<path style="fill:none;stroke-width:1.99255;stroke-linecap:round;stroke-linejoin:round;stroke:rgb(100%,49.801636%,0%);stroke-opacity:1;stroke-miterlimit:10;" d="M 108.559688 42.084344 L 198.969844 -38.278938 " transform="matrix(1,0,0,-1,88.87,168.807)"/>
<path style="fill-rule:nonzero;fill:rgb(100%,100%,0%);fill-opacity:1;stroke-width:0.3985;stroke-linecap:round;stroke-linejoin:round;stroke:rgb(0%,0%,0%);stroke-opacity:1;stroke-miterlimit:10;" d="M 110.551875 42.084344 C 110.551875 43.185906 109.66125 44.076531 108.559688 44.076531 C 107.462031 44.076531 106.5675 43.185906 106.5675 42.084344 C 106.5675 40.986687 107.462031 40.092156 108.559688 40.092156 C 109.66125 40.092156 110.551875 40.986687 110.551875 42.084344 Z M 110.551875 42.084344 " transform="matrix(1,0,0,-1,88.87,168.807)"/>
</g>
</svg>
