<?xml version="1.0" encoding="UTF-8"?>
<svg xmlns="http://www.w3.org/2000/svg" xmlns:xlink="http://www.w3.org/1999/xlink" width="488.455pt" height="440.585pt" viewBox="0 0 488.455 440.585" version="1.1">
<g id="surface1">
<path style="fill:none;stroke-width:1.99255;stroke-linecap:round;stroke-linejoin:round;stroke:rgb(100%,59.999084%,0%);stroke-opacity:1;stroke-miterlimit:10;" d="M -286.869 -110.834156 L -181.986188 60.947094 " transform="matrix(1,0,0,-1,320.744,321.951)"/>
<path style="fill:none;stroke-width:1.99255;stroke-linecap:round;stroke-linejoin:round;stroke:rgb(0%,0%,0%);stroke-opacity:1;stroke-miterlimit:10;" d="M -181.986188 60.947094 L -43.310406 288.076 " transform="matrix(1,0,0,-1,320.744,321.951)"/>
<path style="fill:none;stroke-width:1.99255;stroke-linecap:round;stroke-linejoin:round;stroke:rgb(100%,59.999084%,0%);stroke-opacity:1;stroke-miterlimit:10;" d="M -72.880719 121.243969 L 60.623187 150.533031 " transform="matrix(1,0,0,-1,320.744,321.951)"/>
<path style="fill:none;stroke-width:1.99255;stroke-linecap:round;stroke-linejoin:round;stroke:rgb(0%,0%,0%);stroke-opacity:1;stroke-miterlimit:10;" d="M 60.623187 150.533031 L 158.892719 172.091625 " transform="matrix(1,0,0,-1,320.744,321.951)"/>
<path style="fill:none;stroke-width:1.99255;stroke-linecap:round;stroke-linejoin:round;stroke:rgb(0%,0%,0%);stroke-opacity:1;stroke-miterlimit:10;" d="M -72.880719 121.243969 L -286.869 74.298656 " transform="matrix(1,0,0,-1,320.744,321.951)"/>
<path style="fill:none;stroke-width:1.99255;stroke-linecap:round;stroke-linejoin:round;stroke:rgb(0%,0%,0%);stroke-opacity:1;stroke-miterlimit:10;" d="M -181.986188 60.947094 L -286.869 2.978344 " transform="matrix(1,0,0,-1,320.744,321.951)"/>
<path style="fill:none;stroke-width:1.99255;stroke-linecap:round;stroke-linejoin:round;stroke:rgb(100%,59.999084%,0%);stroke-opacity:1;stroke-miterlimit:10;" d="M -181.986188 60.947094 L -72.880719 121.243969 " transform="matrix(1,0,0,-1,320.744,321.951)"/>
<path style="fill:none;stroke-width:1.99255;stroke-linecap:round;stroke-linejoin:round;stroke:rgb(0%,0%,0%);stroke-opacity:1;stroke-miterlimit:10;" d="M -72.880719 121.243969 L 159.91225 249.900219 " transform="matrix(1,0,0,-1,320.744,321.951)"/>
<path style="fill:none;stroke-width:1.99255;stroke-linecap:round;stroke-linejoin:round;stroke:rgb(100%,59.999084%,0%);stroke-opacity:1;stroke-miterlimit:10;" d="M 60.623187 150.533031 L 158.705219 158.025219 " transform="matrix(1,0,0,-1,320.744,321.951)"/>
<path style="fill:none;stroke-width:1.99255;stroke-linecap:round;stroke-linejoin:round;stroke:rgb(0%,0%,0%);stroke-opacity:1;stroke-miterlimit:10;" d="M 60.623187 150.533031 L -286.869 123.990062 " transform="matrix(1,0,0,-1,320.744,321.951)"/>
<path style="fill-rule:nonzero;fill:rgb(30.195618%,30.195618%,100%);fill-opacity:1;stroke-width:0.3985;stroke-linecap:round;stroke-linejoin:round;stroke:rgb(0%,0%,0%);stroke-opacity:1;stroke-miterlimit:10;" d="M -179.494 60.947094 C -179.494 62.322094 -180.611188 63.435375 -181.986188 63.435375 C -183.361188 63.435375 -184.478375 62.322094 -184.478375 60.947094 C -184.478375 59.568187 -183.361188 58.454906 -181.986188 58.454906 C -180.611188 58.454906 -179.494 59.568187 -179.494 60.947094 Z M -179.494 60.947094 " transform="matrix(1,0,0,-1,320.744,321.951)"/>
<path style="fill-rule:nonzero;fill:rgb(30.195618%,30.195618%,100%);fill-opacity:1;stroke-width:0.3985;stroke-linecap:round;stroke-linejoin:round;stroke:rgb(0%,0%,0%);stroke-opacity:1;stroke-miterlimit:10;" d="M -70.392438 121.243969 C -70.392438 122.618969 -71.505719 123.73225 -72.880719 123.73225 C -74.259625 123.73225 -75.372906 122.618969 -75.372906 121.243969 C -75.372906 119.868969 -74.259625 118.751781 -72.880719 118.751781 C -71.505719 118.751781 -70.392438 119.868969 -70.392438 121.243969 Z M -70.392438 121.243969 " transform="matrix(1,0,0,-1,320.744,321.951)"/>
<path style="fill-rule:nonzero;fill:rgb(30.195618%,30.195618%,100%);fill-opacity:1;stroke-width:0.3985;stroke-linecap:round;stroke-linejoin:round;stroke:rgb(0%,0%,0%);stroke-opacity:1;stroke-miterlimit:10;" d="M 63.111469 150.533031 C 63.111469 151.908031 61.998187 153.025219 60.623187 153.025219 C 59.248187 153.025219 58.131 151.908031 58.131 150.533031 C 58.131 149.158031 59.248187 148.040844 60.623187 148.040844 C 61.998187 148.040844 63.111469 149.158031 63.111469 150.533031 Z M 63.111469 150.533031 " transform="matrix(1,0,0,-1,320.744,321.951)"/>
</g>
</svg>
