<?xml version="1.0" encoding="UTF-8"?>
<svg xmlns="http://www.w3.org/2000/svg" xmlns:xlink="http://www.w3.org/1999/xlink" width="565.41pt" height="503.221pt" viewBox="0 0 565.41 503.221" version="1.1">
<g id="surface1">
<path style="fill:none;stroke-width:1.99255;stroke-linecap:round;stroke-linejoin:round;stroke:rgb(100%,59.999084%,0%);stroke-opacity:1;stroke-miterlimit:10;" d="M -286.868531 -110.837219 L -181.985719 60.944031 " transform="matrix(1,0,0,-1,355.224,354.487)"/>
<path style="fill:none;stroke-width:1.99255;stroke-linecap:round;stroke-linejoin:round;stroke:rgb(0%,0%,0%);stroke-opacity:1;stroke-miterlimit:10;" d="M -286.868531 95.529969 L 154.772094 183.971375 " transform="matrix(1,0,0,-1,355.224,354.487)"/>
<path style="fill:none;stroke-width:1.99255;stroke-linecap:round;stroke-linejoin:round;stroke:rgb(0%,0%,0%);stroke-opacity:1;stroke-miterlimit:10;" d="M -181.985719 60.944031 L -43.309937 288.076844 " transform="matrix(1,0,0,-1,355.224,354.487)"/>
<path style="fill:none;stroke-width:1.99255;stroke-linecap:round;stroke-linejoin:round;stroke:rgb(100%,59.999084%,0%);stroke-opacity:1;stroke-miterlimit:10;" d="M -63.497437 90.994812 L 60.662719 66.615906 " transform="matrix(1,0,0,-1,355.224,354.487)"/>
<path style="fill:none;stroke-width:1.99255;stroke-linecap:round;stroke-linejoin:round;stroke:rgb(0%,0%,0%);stroke-opacity:1;stroke-miterlimit:10;" d="M 60.662719 66.615906 L 154.772094 48.135437 " transform="matrix(1,0,0,-1,355.224,354.487)"/>
<path style="fill:none;stroke-width:1.99255;stroke-linecap:round;stroke-linejoin:round;stroke:rgb(0%,0%,0%);stroke-opacity:1;stroke-miterlimit:10;" d="M -63.497437 90.994812 L -286.868531 134.850281 " transform="matrix(1,0,0,-1,355.224,354.487)"/>
<path style="fill:none;stroke-width:1.99255;stroke-linecap:round;stroke-linejoin:round;stroke:rgb(0%,0%,0%);stroke-opacity:1;stroke-miterlimit:10;" d="M -181.985719 60.944031 L -286.868531 34.346375 " transform="matrix(1,0,0,-1,355.224,354.487)"/>
<path style="fill:none;stroke-width:1.99255;stroke-linecap:round;stroke-linejoin:round;stroke:rgb(100%,59.999084%,0%);stroke-opacity:1;stroke-miterlimit:10;" d="M -181.985719 60.944031 L -63.497437 90.994812 " transform="matrix(1,0,0,-1,355.224,354.487)"/>
<path style="fill:none;stroke-width:1.99255;stroke-linecap:round;stroke-linejoin:round;stroke:rgb(0%,0%,0%);stroke-opacity:1;stroke-miterlimit:10;" d="M -63.497437 90.994812 L 154.772094 146.342469 " transform="matrix(1,0,0,-1,355.224,354.487)"/>
<path style="fill:none;stroke-width:1.99255;stroke-linecap:round;stroke-linejoin:round;stroke:rgb(100%,59.999084%,0%);stroke-opacity:1;stroke-miterlimit:10;" d="M 60.662719 66.615906 L 154.772094 11.623719 " transform="matrix(1,0,0,-1,355.224,354.487)"/>
<path style="fill:none;stroke-width:1.99255;stroke-linecap:round;stroke-linejoin:round;stroke:rgb(0%,0%,0%);stroke-opacity:1;stroke-miterlimit:10;" d="M 60.662719 66.615906 L -286.868531 269.690125 " transform="matrix(1,0,0,-1,355.224,354.487)"/>
<path style="fill-rule:nonzero;fill:rgb(30.195618%,30.195618%,100%);fill-opacity:1;stroke-width:0.3985;stroke-linecap:round;stroke-linejoin:round;stroke:rgb(0%,0%,0%);stroke-opacity:1;stroke-miterlimit:10;" d="M -179.497437 60.944031 C -179.497437 62.322937 -180.610719 63.436219 -181.985719 63.436219 C -183.360719 63.436219 -184.477906 62.322937 -184.477906 60.944031 C -184.477906 59.569031 -183.360719 58.45575 -181.985719 58.45575 C -180.610719 58.45575 -179.497437 59.569031 -179.497437 60.944031 Z M -179.497437 60.944031 " transform="matrix(1,0,0,-1,355.224,354.487)"/>
<path style="fill-rule:nonzero;fill:rgb(30.195618%,30.195618%,100%);fill-opacity:1;stroke-width:0.3985;stroke-linecap:round;stroke-linejoin:round;stroke:rgb(0%,0%,0%);stroke-opacity:1;stroke-miterlimit:10;" d="M -61.00525 90.994812 C -61.00525 92.369812 -62.122437 93.483094 -63.497437 93.483094 C -64.872437 93.483094 -65.989625 92.369812 -65.989625 90.994812 C -65.989625 89.619812 -64.872437 88.502625 -63.497437 88.502625 C -62.122437 88.502625 -61.00525 89.619812 -61.00525 90.994812 Z M -61.00525 90.994812 " transform="matrix(1,0,0,-1,355.224,354.487)"/>
<path style="fill-rule:nonzero;fill:rgb(30.195618%,30.195618%,100%);fill-opacity:1;stroke-width:0.3985;stroke-linecap:round;stroke-linejoin:round;stroke:rgb(0%,0%,0%);stroke-opacity:1;stroke-miterlimit:10;" d="M 63.151 66.615906 C 63.151 67.990906 62.037719 69.104187 60.662719 69.104187 C 59.287719 69.104187 58.170531 67.990906 58.170531 66.615906 C 58.170531 65.240906 59.287719 64.123719 60.662719 64.123719 C 62.037719 64.123719 63.151 65.240906 63.151 66.615906 Z M 63.151 66.615906 " transform="matrix(1,0,0,-1,355.224,354.487)"/>
</g>
</svg>
