<?xml version="1.0" encoding="UTF-8"?>
<svg xmlns="http://www.w3.org/2000/svg" xmlns:xlink="http://www.w3.org/1999/xlink" width="485.09pt" height="375.856pt" viewBox="0 0 485.09 375.856" version="1.1">
<g id="surface1">
<path style="fill:none;stroke-width:1.99255;stroke-linecap:round;stroke-linejoin:round;stroke:rgb(100%,0%,0%);stroke-opacity:1;stroke-miterlimit:10;" d="M 91.362844 22.904125 L 157.605031 -25.404469 " transform="matrix(1,0,0,-1,232.477,233.826)"/>
<path style="fill:none;stroke-width:1.99255;stroke-linecap:round;stroke-linejoin:round;stroke:rgb(100%,0%,0%);stroke-opacity:1;stroke-miterlimit:10;" d="M -180.57075 66.73225 L -141.227 74.85725 " transform="matrix(1,0,0,-1,232.477,233.826)"/>
<path style="fill:none;stroke-width:1.99255;stroke-linecap:round;stroke-linejoin:round;stroke:rgb(75%,75%,75%);stroke-opacity:1;stroke-miterlimit:10;" d="M -141.227 74.85725 L 65.964406 117.630687 " transform="matrix(1,0,0,-1,232.477,233.826)"/>
<path style="fill:none;stroke-width:1.99255;stroke-linecap:round;stroke-linejoin:round;stroke:rgb(100%,0%,0%);stroke-opacity:1;stroke-miterlimit:10;" d="M 65.964406 117.630687 L 91.362844 122.876781 " transform="matrix(1,0,0,-1,232.477,233.826)"/>
<path style="fill:none;stroke-width:1.99255;stroke-linecap:round;stroke-linejoin:round;stroke:rgb(75%,75%,75%);stroke-opacity:1;stroke-miterlimit:10;" d="M 91.362844 122.876781 L 157.605031 136.552562 " transform="matrix(1,0,0,-1,232.477,233.826)"/>
<path style="fill:none;stroke-width:1.99255;stroke-linecap:round;stroke-linejoin:round;stroke:rgb(100%,0%,0%);stroke-opacity:1;stroke-miterlimit:10;" d="M 157.605031 136.552562 L 205.417531 146.423656 " transform="matrix(1,0,0,-1,232.477,233.826)"/>
<path style="fill:none;stroke-width:1.99255;stroke-linecap:round;stroke-linejoin:round;stroke:rgb(100%,0%,0%);stroke-opacity:1;stroke-miterlimit:10;" d="M -141.227 57.767406 L -62.035594 23.290844 " transform="matrix(1,0,0,-1,232.477,233.826)"/>
<path style="fill:none;stroke-width:1.99255;stroke-linecap:round;stroke-linejoin:round;stroke:rgb(75%,75%,75%);stroke-opacity:1;stroke-miterlimit:10;" d="M -62.035594 23.290844 L -24.449656 6.927562 " transform="matrix(1,0,0,-1,232.477,233.826)"/>
<path style="fill:none;stroke-width:1.99255;stroke-linecap:round;stroke-linejoin:round;stroke:rgb(100%,0%,0%);stroke-opacity:1;stroke-miterlimit:10;" d="M -24.449656 6.927562 L 5.202687 -5.982594 " transform="matrix(1,0,0,-1,232.477,233.826)"/>
<path style="fill:none;stroke-width:1.99255;stroke-linecap:round;stroke-linejoin:round;stroke:rgb(100%,0%,0%);stroke-opacity:1;stroke-miterlimit:10;" d="M -62.035594 -17.935719 L -24.449656 6.927562 " transform="matrix(1,0,0,-1,232.477,233.826)"/>
<path style="fill:none;stroke-width:1.99255;stroke-linecap:round;stroke-linejoin:round;stroke:rgb(75%,75%,75%);stroke-opacity:1;stroke-miterlimit:10;" d="M -24.449656 6.927562 L 5.202687 26.540844 " transform="matrix(1,0,0,-1,232.477,233.826)"/>
<path style="fill:none;stroke-width:1.99255;stroke-linecap:round;stroke-linejoin:round;stroke:rgb(100%,0%,0%);stroke-opacity:1;stroke-miterlimit:10;" d="M 5.202687 26.540844 L 65.964406 66.73225 " transform="matrix(1,0,0,-1,232.477,233.826)"/>
<path style="fill-rule:nonzero;fill:rgb(0%,0%,100%);fill-opacity:1;stroke-width:0.3985;stroke-linecap:round;stroke-linejoin:round;stroke:rgb(0%,0%,0%);stroke-opacity:1;stroke-miterlimit:10;" d="M -138.734813 57.767406 C -138.734813 59.146312 -139.852 60.259594 -141.227 60.259594 C -142.602 60.259594 -143.715281 59.146312 -143.715281 57.767406 C -143.715281 56.392406 -142.602 55.279125 -141.227 55.279125 C -139.852 55.279125 -138.734813 56.392406 -138.734813 57.767406 Z M -138.734813 57.767406 " transform="matrix(1,0,0,-1,232.477,233.826)"/>
<path style="fill-rule:nonzero;fill:rgb(0%,0%,100%);fill-opacity:1;stroke-width:0.3985;stroke-linecap:round;stroke-linejoin:round;stroke:rgb(0%,0%,0%);stroke-opacity:1;stroke-miterlimit:10;" d="M 7.690969 -5.982594 C 7.690969 -4.603688 6.577687 -3.490406 5.202687 -3.490406 C 3.823781 -3.490406 2.7105 -4.603688 2.7105 -5.982594 C 2.7105 -7.357594 3.823781 -8.470875 5.202687 -8.470875 C 6.577687 -8.470875 7.690969 -7.357594 7.690969 -5.982594 Z M 7.690969 -5.982594 " transform="matrix(1,0,0,-1,232.477,233.826)"/>
<path style="fill-rule:nonzero;fill:rgb(0%,0%,100%);fill-opacity:1;stroke-width:0.3985;stroke-linecap:round;stroke-linejoin:round;stroke:rgb(0%,0%,0%);stroke-opacity:1;stroke-miterlimit:10;" d="M -59.543406 -17.935719 C -59.543406 -16.556813 -60.660594 -15.443531 -62.035594 -15.443531 C -63.410594 -15.443531 -64.527781 -16.556813 -64.527781 -17.935719 C -64.527781 -19.310719 -63.410594 -20.424 -62.035594 -20.424 C -60.660594 -20.424 -59.543406 -19.310719 -59.543406 -17.935719 Z M -59.543406 -17.935719 " transform="matrix(1,0,0,-1,232.477,233.826)"/>
<path style="fill-rule:nonzero;fill:rgb(0%,0%,100%);fill-opacity:1;stroke-width:0.3985;stroke-linecap:round;stroke-linejoin:round;stroke:rgb(0%,0%,0%);stroke-opacity:1;stroke-miterlimit:10;" d="M 68.452687 66.73225 C 68.452687 68.111156 67.339406 69.224437 65.964406 69.224437 C 64.589406 69.224437 63.472219 68.111156 63.472219 66.73225 C 63.472219 65.35725 64.589406 64.243969 65.964406 64.243969 C 67.339406 64.243969 68.452687 65.35725 68.452687 66.73225 Z M 68.452687 66.73225 " transform="matrix(1,0,0,-1,232.477,233.826)"/>
<path style="fill-rule:nonzero;fill:rgb(0%,0%,100%);fill-opacity:1;stroke-width:0.3985;stroke-linecap:round;stroke-linejoin:round;stroke:rgb(0%,0%,0%);stroke-opacity:1;stroke-miterlimit:10;" d="M 93.855031 22.904125 C 93.855031 24.283031 92.737844 25.396312 91.362844 25.396312 C 89.987844 25.396312 88.874562 24.283031 88.874562 22.904125 C 88.874562 21.529125 89.987844 20.415844 91.362844 20.415844 C 92.737844 20.415844 93.855031 21.529125 93.855031 22.904125 Z M 93.855031 22.904125 " transform="matrix(1,0,0,-1,232.477,233.826)"/>
<path style="fill-rule:nonzero;fill:rgb(0%,0%,100%);fill-opacity:1;stroke-width:0.3985;stroke-linecap:round;stroke-linejoin:round;stroke:rgb(0%,0%,0%);stroke-opacity:1;stroke-miterlimit:10;" d="M 160.097219 -25.404469 C 160.097219 -24.029469 158.980031 -22.916188 157.605031 -22.916188 C 156.230031 -22.916188 155.112844 -24.029469 155.112844 -25.404469 C 155.112844 -26.779469 156.230031 -27.896656 157.605031 -27.896656 C 158.980031 -27.896656 160.097219 -26.779469 160.097219 -25.404469 Z M 160.097219 -25.404469 " transform="matrix(1,0,0,-1,232.477,233.826)"/>
<path style="fill-rule:nonzero;fill:rgb(0%,0%,100%);fill-opacity:1;stroke-width:0.3985;stroke-linecap:round;stroke-linejoin:round;stroke:rgb(0%,0%,0%);stroke-opacity:1;stroke-miterlimit:10;" d="M -178.082469 66.73225 C -178.082469 68.111156 -179.19575 69.224437 -180.57075 69.224437 C -181.94575 69.224437 -183.062938 68.111156 -183.062938 66.73225 C -183.062938 65.35725 -181.94575 64.243969 -180.57075 64.243969 C -179.19575 64.243969 -178.082469 65.35725 -178.082469 66.73225 Z M -178.082469 66.73225 " transform="matrix(1,0,0,-1,232.477,233.826)"/>
<path style="fill-rule:nonzero;fill:rgb(0%,0%,100%);fill-opacity:1;stroke-width:0.3985;stroke-linecap:round;stroke-linejoin:round;stroke:rgb(0%,0%,0%);stroke-opacity:1;stroke-miterlimit:10;" d="M 207.909719 146.423656 C 207.909719 147.798656 206.792531 148.911937 205.417531 148.911937 C 204.042531 148.911937 202.925344 147.798656 202.925344 146.423656 C 202.925344 145.048656 204.042531 143.931469 205.417531 143.931469 C 206.792531 143.931469 207.909719 145.048656 207.909719 146.423656 Z M 207.909719 146.423656 " transform="matrix(1,0,0,-1,232.477,233.826)"/>
<path style="fill-rule:nonzero;fill:rgb(75%,75%,75%);fill-opacity:1;stroke-width:0.3985;stroke-linecap:round;stroke-linejoin:round;stroke:rgb(0%,0%,0%);stroke-opacity:1;stroke-miterlimit:10;" d="M -139.234813 74.85725 C -139.234813 75.958812 -140.125438 76.849437 -141.227 76.849437 C -142.324656 76.849437 -143.219188 75.958812 -143.219188 74.85725 C -143.219188 73.755687 -142.324656 72.865062 -141.227 72.865062 C -140.125438 72.865062 -139.234813 73.755687 -139.234813 74.85725 Z M -139.234813 74.85725 " transform="matrix(1,0,0,-1,232.477,233.826)"/>
<path style="fill-rule:nonzero;fill:rgb(75%,75%,75%);fill-opacity:1;stroke-width:0.3985;stroke-linecap:round;stroke-linejoin:round;stroke:rgb(0%,0%,0%);stroke-opacity:1;stroke-miterlimit:10;" d="M -60.043406 23.290844 C -60.043406 24.392406 -60.934031 25.283031 -62.035594 25.283031 C -63.137156 25.283031 -64.027781 24.392406 -64.027781 23.290844 C -64.027781 22.193187 -63.137156 21.298656 -62.035594 21.298656 C -60.934031 21.298656 -60.043406 22.193187 -60.043406 23.290844 Z M -60.043406 23.290844 " transform="matrix(1,0,0,-1,232.477,233.826)"/>
<path style="fill-rule:nonzero;fill:rgb(75%,75%,75%);fill-opacity:1;stroke-width:0.3985;stroke-linecap:round;stroke-linejoin:round;stroke:rgb(0%,0%,0%);stroke-opacity:1;stroke-miterlimit:10;" d="M -22.457469 6.927562 C -22.457469 8.029125 -23.348094 8.91975 -24.449656 8.91975 C -25.551219 8.91975 -26.441844 8.029125 -26.441844 6.927562 C -26.441844 5.826 -25.551219 4.935375 -24.449656 4.935375 C -23.348094 4.935375 -22.457469 5.826 -22.457469 6.927562 Z M -22.457469 6.927562 " transform="matrix(1,0,0,-1,232.477,233.826)"/>
<path style="fill-rule:nonzero;fill:rgb(75%,75%,75%);fill-opacity:1;stroke-width:0.3985;stroke-linecap:round;stroke-linejoin:round;stroke:rgb(0%,0%,0%);stroke-opacity:1;stroke-miterlimit:10;" d="M 7.194875 26.540844 C 7.194875 27.642406 6.300344 28.533031 5.202687 28.533031 C 4.101125 28.533031 3.2105 27.642406 3.2105 26.540844 C 3.2105 25.439281 4.101125 24.548656 5.202687 24.548656 C 6.300344 24.548656 7.194875 25.439281 7.194875 26.540844 Z M 7.194875 26.540844 " transform="matrix(1,0,0,-1,232.477,233.826)"/>
<path style="fill-rule:nonzero;fill:rgb(75%,75%,75%);fill-opacity:1;stroke-width:0.3985;stroke-linecap:round;stroke-linejoin:round;stroke:rgb(0%,0%,0%);stroke-opacity:1;stroke-miterlimit:10;" d="M 67.956594 117.630687 C 67.956594 118.73225 67.062062 119.622875 65.964406 119.622875 C 64.862844 119.622875 63.972219 118.73225 63.972219 117.630687 C 63.972219 116.533031 64.862844 115.6385 65.964406 115.6385 C 67.062062 115.6385 67.956594 116.533031 67.956594 117.630687 Z M 67.956594 117.630687 " transform="matrix(1,0,0,-1,232.477,233.826)"/>
<path style="fill-rule:nonzero;fill:rgb(75%,75%,75%);fill-opacity:1;stroke-width:0.3985;stroke-linecap:round;stroke-linejoin:round;stroke:rgb(0%,0%,0%);stroke-opacity:1;stroke-miterlimit:10;" d="M 93.355031 122.876781 C 93.355031 123.974437 92.464406 124.868969 91.362844 124.868969 C 90.265187 124.868969 89.370656 123.974437 89.370656 122.876781 C 89.370656 121.775219 90.265187 120.884594 91.362844 120.884594 C 92.464406 120.884594 93.355031 121.775219 93.355031 122.876781 Z M 93.355031 122.876781 " transform="matrix(1,0,0,-1,232.477,233.826)"/>
<path style="fill-rule:nonzero;fill:rgb(75%,75%,75%);fill-opacity:1;stroke-width:0.3985;stroke-linecap:round;stroke-linejoin:round;stroke:rgb(0%,0%,0%);stroke-opacity:1;stroke-miterlimit:10;" d="M 159.597219 136.552562 C 159.597219 137.650219 158.706594 138.54475 157.605031 138.54475 C 156.503469 138.54475 155.612844 137.650219 155.612844 136.552562 C 155.612844 135.451 156.503469 134.560375 157.605031 134.560375 C 158.706594 134.560375 159.597219 135.451 159.597219 136.552562 Z M 159.597219 136.552562 " transform="matrix(1,0,0,-1,232.477,233.826)"/>
</g>
</svg>
