<?xml version="1.0" encoding="UTF-8"?>
<svg xmlns="http://www.w3.org/2000/svg" xmlns:xlink="http://www.w3.org/1999/xlink" width="469.265pt" height="183.41pt" viewBox="0 0 469.265 183.41" version="1.1">
<g id="surface1">
<path style="fill:none;stroke-width:1.99255;stroke-linecap:round;stroke-linejoin:round;stroke:rgb(0%,0%,0%);stroke-opacity:1;stroke-miterlimit:10;" d="M -212.601687 70.865094 L -212.601687 -70.865375 " transform="matrix(1,0,0,-1,247.672,104.744)"/>
<path style="fill:none;stroke-width:1.99255;stroke-linecap:round;stroke-linejoin:round;stroke:rgb(0%,0%,0%);stroke-opacity:1;stroke-miterlimit:10;" d="M -212.601687 70.865094 L -0.000125 70.865094 " transform="matrix(1,0,0,-1,247.672,104.744)"/>
<path style="fill:none;stroke-width:1.99255;stroke-linecap:round;stroke-linejoin:round;stroke:rgb(0%,0%,0%);stroke-opacity:1;stroke-miterlimit:10;" d="M -0.000125 70.865094 L -0.000125 -70.865375 " transform="matrix(1,0,0,-1,247.672,104.744)"/>
<path style="fill:none;stroke-width:1.99255;stroke-linecap:round;stroke-linejoin:round;stroke:rgb(0%,0%,0%);stroke-opacity:1;stroke-miterlimit:10;" d="M -0.000125 -70.865375 L -212.601687 -70.865375 " transform="matrix(1,0,0,-1,247.672,104.744)"/>
<path style="fill:none;stroke-width:1.99255;stroke-linecap:round;stroke-linejoin:round;stroke:rgb(0%,0%,0%);stroke-opacity:1;stroke-miterlimit:10;" d="M -0.000125 70.865094 L 212.601438 70.865094 " transform="matrix(1,0,0,-1,247.672,104.744)"/>
<path style="fill:none;stroke-width:1.99255;stroke-linecap:round;stroke-linejoin:round;stroke:rgb(0%,0%,0%);stroke-opacity:1;stroke-miterlimit:10;" d="M 212.601438 70.865094 L 212.601438 -70.865375 " transform="matrix(1,0,0,-1,247.672,104.744)"/>
<path style="fill:none;stroke-width:1.99255;stroke-linecap:round;stroke-linejoin:round;stroke:rgb(0%,0%,0%);stroke-opacity:1;stroke-miterlimit:10;" d="M 212.601438 -70.865375 L -0.000125 -70.865375 " transform="matrix(1,0,0,-1,247.672,104.744)"/>
<path style="fill:none;stroke-width:1.99255;stroke-linecap:round;stroke-linejoin:round;stroke:rgb(0%,0%,100%);stroke-opacity:1;stroke-miterlimit:10;" d="M -212.601687 -53.150531 L 212.601438 35.435406 " transform="matrix(1,0,0,-1,247.672,104.744)"/>
<path style="fill:none;stroke-width:1.99255;stroke-linecap:round;stroke-linejoin:round;stroke:rgb(0%,100%,0%);stroke-opacity:1;stroke-miterlimit:10;" d="M -212.601687 0.0018125 L 212.601438 -53.150531 " transform="matrix(1,0,0,-1,247.672,104.744)"/>
<path style="fill-rule:nonzero;fill:rgb(0%,100%,0%);fill-opacity:1;stroke-width:0.3985;stroke-linecap:round;stroke-linejoin:round;stroke:rgb(0%,0%,0%);stroke-opacity:1;stroke-miterlimit:10;" d="M -210.6095 0.0018125 C -210.6095 1.099469 -211.500125 1.994 -212.601687 1.994 C -213.70325 1.994 -214.593875 1.099469 -214.593875 0.0018125 C -214.593875 -1.09975 -213.70325 -1.994281 -212.601687 -1.994281 C -211.500125 -1.994281 -210.6095 -1.09975 -210.6095 0.0018125 Z M -210.6095 0.0018125 " transform="matrix(1,0,0,-1,247.672,104.744)"/>
<path style="fill-rule:nonzero;fill:rgb(0%,0%,100%);fill-opacity:1;stroke-width:0.3985;stroke-linecap:round;stroke-linejoin:round;stroke:rgb(0%,0%,0%);stroke-opacity:1;stroke-miterlimit:10;" d="M -210.6095 -53.150531 C -210.6095 -52.048969 -211.500125 -51.158344 -212.601687 -51.158344 C -213.70325 -51.158344 -214.593875 -52.048969 -214.593875 -53.150531 C -214.593875 -54.252094 -213.70325 -55.142719 -212.601687 -55.142719 C -211.500125 -55.142719 -210.6095 -54.252094 -210.6095 -53.150531 Z M -210.6095 -53.150531 " transform="matrix(1,0,0,-1,247.672,104.744)"/>
<path style="fill-rule:nonzero;fill:rgb(0%,0%,100%);fill-opacity:1;stroke-width:0.3985;stroke-linecap:round;stroke-linejoin:round;stroke:rgb(0%,0%,0%);stroke-opacity:1;stroke-miterlimit:10;" d="M 214.593625 35.435406 C 214.593625 36.533062 213.703 37.427594 212.601438 37.427594 C 211.499875 37.427594 210.60925 36.533062 210.60925 35.435406 C 210.60925 34.333844 211.499875 33.439312 212.601438 33.439312 C 213.703 33.439312 214.593625 34.333844 214.593625 35.435406 Z M 214.593625 35.435406 " transform="matrix(1,0,0,-1,247.672,104.744)"/>
<path style="fill-rule:nonzero;fill:rgb(0%,100%,0%);fill-opacity:1;stroke-width:0.3985;stroke-linecap:round;stroke-linejoin:round;stroke:rgb(0%,0%,0%);stroke-opacity:1;stroke-miterlimit:10;" d="M 214.593625 -53.150531 C 214.593625 -52.048969 213.703 -51.158344 212.601438 -51.158344 C 211.499875 -51.158344 210.60925 -52.048969 210.60925 -53.150531 C 210.60925 -54.252094 211.499875 -55.142719 212.601438 -55.142719 C 213.703 -55.142719 214.593625 -54.252094 214.593625 -53.150531 Z M 214.593625 -53.150531 " transform="matrix(1,0,0,-1,247.672,104.744)"/>
<path style="fill-rule:nonzero;fill:rgb(100%,0%,0%);fill-opacity:1;stroke-width:0.3985;stroke-linecap:round;stroke-linejoin:round;stroke:rgb(0%,0%,0%);stroke-opacity:1;stroke-miterlimit:10;" d="M -51.156375 -19.931781 C -51.156375 -18.830219 -52.050906 -17.939594 -53.148562 -17.939594 C -54.250125 -17.939594 -55.144656 -18.830219 -55.144656 -19.931781 C -55.144656 -21.033344 -54.250125 -21.923969 -53.148562 -21.923969 C -52.050906 -21.923969 -51.156375 -21.033344 -51.156375 -19.931781 Z M -51.156375 -19.931781 " transform="matrix(1,0,0,-1,247.672,104.744)"/>
<path style="fill-rule:nonzero;fill:rgb(0%,0%,100%);fill-opacity:1;stroke-width:0.3985;stroke-linecap:round;stroke-linejoin:round;stroke:rgb(0%,0%,0%);stroke-opacity:1;stroke-miterlimit:10;" d="M 1.992063 -8.857563 C 1.992063 -7.756 1.101438 -6.865375 -0.000125 -6.865375 C -1.101687 -6.865375 -1.992312 -7.756 -1.992312 -8.857563 C -1.992312 -9.959125 -1.101687 -10.84975 -0.000125 -10.84975 C 1.101438 -10.84975 1.992063 -9.959125 1.992063 -8.857563 Z M 1.992063 -8.857563 " transform="matrix(1,0,0,-1,247.672,104.744)"/>
<path style="fill-rule:nonzero;fill:rgb(0%,100%,0%);fill-opacity:1;stroke-width:0.3985;stroke-linecap:round;stroke-linejoin:round;stroke:rgb(0%,0%,0%);stroke-opacity:1;stroke-miterlimit:10;" d="M 1.992063 -26.576313 C 1.992063 -25.47475 1.101438 -24.584125 -0.000125 -24.584125 C -1.101687 -24.584125 -1.992312 -25.47475 -1.992312 -26.576313 C -1.992312 -27.673969 -1.101687 -28.5685 -0.000125 -28.5685 C 1.101438 -28.5685 1.992063 -27.673969 1.992063 -26.576313 Z M 1.992063 -26.576313 " transform="matrix(1,0,0,-1,247.672,104.744)"/>
</g>
</svg>
