<?xml version="1.0" encoding="UTF-8"?>
<svg xmlns="http://www.w3.org/2000/svg" xmlns:xlink="http://www.w3.org/1999/xlink" width="320.289pt" height="169.864pt" viewBox="0 0 320.289 169.864" version="1.1">
<g id="surface1">
<path style="fill:none;stroke-width:1.99255;stroke-linecap:round;stroke-linejoin:round;stroke:rgb(0%,0%,0%);stroke-opacity:1;stroke-miterlimit:10;" d="M 258.108125 -38.83675 C 258.108125 -5.02425 230.697969 22.385906 196.885469 22.385906 C 163.069063 22.385906 135.658906 -5.02425 135.658906 -38.83675 C 135.658906 -72.653156 163.069063 -100.063312 196.885469 -100.063312 C 230.697969 -100.063312 258.108125 -72.653156 258.108125 -38.83675 Z M 258.108125 -38.83675 " transform="matrix(1,0,0,-1,-101.78,57.132)"/>
<path style="fill:none;stroke-width:1.99255;stroke-linecap:round;stroke-linejoin:round;stroke:rgb(0%,0%,0%);stroke-opacity:1;stroke-miterlimit:10;" d="M 414.276094 -40.840656 C 414.276094 -5.442219 385.580781 23.253094 350.182344 23.253094 C 314.783906 23.253094 286.084687 -5.442219 286.084687 -40.840656 C 286.084687 -76.239094 314.783906 -104.934406 350.182344 -104.934406 C 385.580781 -104.934406 414.276094 -76.239094 414.276094 -40.840656 Z M 414.276094 -40.840656 " transform="matrix(1,0,0,-1,-101.78,57.132)"/>
<path style="fill-rule:nonzero;fill:rgb(30.195618%,30.195618%,100%);fill-opacity:1;stroke-width:0.3985;stroke-linecap:round;stroke-linejoin:round;stroke:rgb(0%,0%,0%);stroke-opacity:1;stroke-miterlimit:10;" d="M 152.487031 0.530438 C 152.487031 1.905438 151.369844 3.018719 149.994844 3.018719 C 148.619844 3.018719 147.502656 1.905438 147.502656 0.530438 C 147.502656 -0.848469 148.619844 -1.96175 149.994844 -1.96175 C 151.369844 -1.96175 152.487031 -0.848469 152.487031 0.530438 Z M 152.487031 0.530438 " transform="matrix(1,0,0,-1,-101.78,57.132)"/>
<path style="fill-rule:nonzero;fill:rgb(30.195618%,30.195618%,100%);fill-opacity:1;stroke-width:0.3985;stroke-linecap:round;stroke-linejoin:round;stroke:rgb(0%,0%,0%);stroke-opacity:1;stroke-miterlimit:10;" d="M 258.045625 -21.344562 C 258.045625 -19.969562 256.932344 -18.852375 255.557344 -18.852375 C 254.178438 -18.852375 253.065156 -19.969562 253.065156 -21.344562 C 253.065156 -22.719562 254.178438 -23.832844 255.557344 -23.832844 C 256.932344 -23.832844 258.045625 -22.719562 258.045625 -21.344562 Z M 258.045625 -21.344562 " transform="matrix(1,0,0,-1,-101.78,57.132)"/>
<path style="fill-rule:nonzero;fill:rgb(30.195618%,30.195618%,100%);fill-opacity:1;stroke-width:0.3985;stroke-linecap:round;stroke-linejoin:round;stroke:rgb(0%,0%,0%);stroke-opacity:1;stroke-miterlimit:10;" d="M 169.737031 -92.410969 C 169.737031 -91.035969 168.619844 -89.918781 167.244844 -89.918781 C 165.869844 -89.918781 164.756563 -91.035969 164.756563 -92.410969 C 164.756563 -93.785969 165.869844 -94.89925 167.244844 -94.89925 C 168.619844 -94.89925 169.737031 -93.785969 169.737031 -92.410969 Z M 169.737031 -92.410969 " transform="matrix(1,0,0,-1,-101.78,57.132)"/>
<path style="fill-rule:nonzero;fill:rgb(30.195618%,30.195618%,100%);fill-opacity:1;stroke-width:0.3985;stroke-linecap:round;stroke-linejoin:round;stroke:rgb(0%,0%,0%);stroke-opacity:1;stroke-miterlimit:10;" d="M 299.416719 -5.176594 C 299.416719 -3.801594 298.299531 -2.684406 296.924531 -2.684406 C 295.549531 -2.684406 294.432344 -3.801594 294.432344 -5.176594 C 294.432344 -6.551594 295.549531 -7.668781 296.924531 -7.668781 C 298.299531 -7.668781 299.416719 -6.551594 299.416719 -5.176594 Z M 299.416719 -5.176594 " transform="matrix(1,0,0,-1,-101.78,57.132)"/>
<path style="fill-rule:nonzero;fill:rgb(30.195618%,30.195618%,100%);fill-opacity:1;stroke-width:0.3985;stroke-linecap:round;stroke-linejoin:round;stroke:rgb(0%,0%,0%);stroke-opacity:1;stroke-miterlimit:10;" d="M 405.428437 -76.500812 C 405.428437 -75.403156 404.537812 -74.508625 403.43625 -74.508625 C 402.334687 -74.508625 401.444062 -75.403156 401.444062 -76.500812 C 401.444062 -77.602375 402.334687 -78.493 403.43625 -78.493 C 404.537812 -78.493 405.428437 -77.602375 405.428437 -76.500812 Z M 405.428437 -76.500812 " transform="matrix(1,0,0,-1,-101.78,57.132)"/>
</g>
</svg>
