<?xml version="1.0" encoding="UTF-8"?>
<svg xmlns="http://www.w3.org/2000/svg" xmlns:xlink="http://www.w3.org/1999/xlink" width="225.478pt" height="224.489pt" viewBox="0 0 225.478 224.489" version="1.1">
<g id="surface1">
<path style="fill:none;stroke-width:1.99255;stroke-linecap:round;stroke-linejoin:round;stroke:rgb(0%,0%,0%);stroke-opacity:1;stroke-miterlimit:10;" d="M 297.765594 -37.268812 C 297.765594 12.746813 257.218719 53.293688 207.203094 53.293688 C 157.187469 53.293688 116.6445 12.746813 116.6445 -37.268812 C 116.6445 -87.284437 157.187469 -127.827406 207.203094 -127.827406 C 257.218719 -127.827406 297.765594 -87.284437 297.765594 -37.268812 Z M 297.765594 -37.268812 " transform="matrix(1,0,0,-1,-80.082,88.864)"/>
<path style="fill-rule:nonzero;fill:rgb(30.195618%,30.195618%,100%);fill-opacity:1;stroke-width:0.3985;stroke-linecap:round;stroke-linejoin:round;stroke:rgb(0%,0%,0%);stroke-opacity:1;stroke-miterlimit:10;" d="M 209.421844 53.293688 C 209.421844 54.668688 208.308562 55.781969 206.933562 55.781969 C 205.554656 55.781969 204.441375 54.668688 204.441375 53.293688 C 204.441375 51.914781 205.554656 50.8015 206.933562 50.8015 C 208.308562 50.8015 209.421844 51.914781 209.421844 53.293688 Z M 209.421844 53.293688 " transform="matrix(1,0,0,-1,-80.082,88.864)"/>
<path style="fill-rule:nonzero;fill:rgb(30.195618%,30.195618%,100%);fill-opacity:1;stroke-width:0.3985;stroke-linecap:round;stroke-linejoin:round;stroke:rgb(0%,0%,0%);stroke-opacity:1;stroke-miterlimit:10;" d="M 122.679656 -62.362562 C 122.679656 -60.987562 121.566375 -59.870375 120.191375 -59.870375 C 118.816375 -59.870375 117.699187 -60.987562 117.699187 -62.362562 C 117.699187 -63.737562 118.816375 -64.85475 120.191375 -64.85475 C 121.566375 -64.85475 122.679656 -63.737562 122.679656 -62.362562 Z M 122.679656 -62.362562 " transform="matrix(1,0,0,-1,-80.082,88.864)"/>
<path style="fill-rule:nonzero;fill:rgb(30.195618%,30.195618%,100%);fill-opacity:1;stroke-width:0.3985;stroke-linecap:round;stroke-linejoin:round;stroke:rgb(0%,0%,0%);stroke-opacity:1;stroke-miterlimit:10;" d="M 293.328094 -71.999281 C 293.328094 -70.624281 292.214812 -69.511 290.839812 -69.511 C 289.460906 -69.511 288.347625 -70.624281 288.347625 -71.999281 C 288.347625 -73.378187 289.460906 -74.491469 290.839812 -74.491469 C 292.214812 -74.491469 293.328094 -73.378187 293.328094 -71.999281 Z M 293.328094 -71.999281 " transform="matrix(1,0,0,-1,-80.082,88.864)"/>
<path style="fill-rule:nonzero;fill:rgb(30.195618%,30.195618%,100%);fill-opacity:1;stroke-width:0.3985;stroke-linecap:round;stroke-linejoin:round;stroke:rgb(0%,0%,0%);stroke-opacity:1;stroke-miterlimit:10;" d="M 217.359344 6.8015 C 217.359344 8.180406 216.246062 9.293688 214.867156 9.293688 C 213.492156 9.293688 212.378875 8.180406 212.378875 6.8015 C 212.378875 5.4265 213.492156 4.313219 214.867156 4.313219 C 216.246062 4.313219 217.359344 5.4265 217.359344 6.8015 Z M 217.359344 6.8015 " transform="matrix(1,0,0,-1,-80.082,88.864)"/>
<path style="fill-rule:nonzero;fill:rgb(30.195618%,30.195618%,100%);fill-opacity:1;stroke-width:0.3985;stroke-linecap:round;stroke-linejoin:round;stroke:rgb(0%,0%,0%);stroke-opacity:1;stroke-miterlimit:10;" d="M 174.839812 -23.811781 C 174.839812 -22.436781 173.722625 -21.319594 172.347625 -21.319594 C 170.972625 -21.319594 169.859344 -22.436781 169.859344 -23.811781 C 169.859344 -25.186781 170.972625 -26.300062 172.347625 -26.300062 C 173.722625 -26.300062 174.839812 -25.186781 174.839812 -23.811781 Z M 174.839812 -23.811781 " transform="matrix(1,0,0,-1,-80.082,88.864)"/>
<path style="fill-rule:nonzero;fill:rgb(30.195618%,30.195618%,100%);fill-opacity:1;stroke-width:0.3985;stroke-linecap:round;stroke-linejoin:round;stroke:rgb(0%,0%,0%);stroke-opacity:1;stroke-miterlimit:10;" d="M 244.003875 -100.346937 C 244.003875 -98.971937 242.890594 -97.858656 241.515594 -97.858656 C 240.140594 -97.858656 239.023406 -98.971937 239.023406 -100.346937 C 239.023406 -101.721937 240.140594 -102.839125 241.515594 -102.839125 C 242.890594 -102.839125 244.003875 -101.721937 244.003875 -100.346937 Z M 244.003875 -100.346937 " transform="matrix(1,0,0,-1,-80.082,88.864)"/>
<path style="fill-rule:nonzero;fill:rgb(30.195618%,30.195618%,100%);fill-opacity:1;stroke-width:0.3985;stroke-linecap:round;stroke-linejoin:round;stroke:rgb(0%,0%,0%);stroke-opacity:1;stroke-miterlimit:10;" d="M 255.343719 -21.54225 C 255.343719 -20.16725 254.230437 -19.053969 252.855437 -19.053969 C 251.476531 -19.053969 250.36325 -20.16725 250.36325 -21.54225 C 250.36325 -22.91725 251.476531 -24.034437 252.855437 -24.034437 C 254.230437 -24.034437 255.343719 -22.91725 255.343719 -21.54225 Z M 255.343719 -21.54225 " transform="matrix(1,0,0,-1,-80.082,88.864)"/>
<path style="fill-rule:nonzero;fill:rgb(30.195618%,30.195618%,100%);fill-opacity:1;stroke-width:0.3985;stroke-linecap:round;stroke-linejoin:round;stroke:rgb(0%,0%,0%);stroke-opacity:1;stroke-miterlimit:10;" d="M 183.910125 -82.772719 C 183.910125 -81.397719 182.796844 -80.280531 181.417937 -80.280531 C 180.042937 -80.280531 178.929656 -81.397719 178.929656 -82.772719 C 178.929656 -84.147719 180.042937 -85.264906 181.417937 -85.264906 C 182.796844 -85.264906 183.910125 -84.147719 183.910125 -82.772719 Z M 183.910125 -82.772719 " transform="matrix(1,0,0,-1,-80.082,88.864)"/>
<path style="fill-rule:nonzero;fill:rgb(100%,0%,0%);fill-opacity:1;stroke-width:0.3985;stroke-linecap:round;stroke-linejoin:round;stroke:rgb(0%,0%,0%);stroke-opacity:1;stroke-miterlimit:10;" d="M 118.1445 22.39525 C 118.1445 23.77025 117.031219 24.883531 115.656219 24.883531 C 114.281219 24.883531 113.164031 23.77025 113.164031 22.39525 C 113.164031 21.016344 114.281219 19.903063 115.656219 19.903063 C 117.031219 19.903063 118.1445 21.016344 118.1445 22.39525 Z M 118.1445 22.39525 " transform="matrix(1,0,0,-1,-80.082,88.864)"/>
</g>
</svg>
